<svg width="87" height="75" viewBox="0 0 87 75" fill="none" xmlns="http://www.w3.org/2000/svg">
<path d="M0 0H49.5C70.2107 0 87 16.7893 87 37.5V75H42.5C19.0279 75 0 55.9721 0 32.5V0Z" fill="#39DB4A"/>
<g clip-path="url(#clip0_5102_44)">
<path d="M49.25 27.8507C48.2243 27.8606 47.2152 28.1106 46.3035 28.5807C45.3918 29.0508 44.6029 29.7279 44 30.5577C43.397 29.7279 42.6081 29.0508 41.6964 28.5807C40.7848 28.1106 39.7756 27.8606 38.75 27.8507C36.8917 27.9249 35.1385 28.7319 33.8736 30.0952C32.6087 31.4585 31.935 33.2671 32 35.1257C32 39.6777 36.674 44.5507 40.6 47.8377C41.5533 48.6393 42.7589 49.0788 44.0045 49.0788C45.25 49.0788 46.4556 48.6393 47.409 47.8377C51.331 44.5507 56.009 39.6777 56.009 35.1257C56.0738 33.2656 55.399 31.4556 54.1322 30.0921C52.8653 28.7286 51.1098 27.9226 49.25 27.8507ZM45.477 45.5387C45.0634 45.8869 44.5401 46.0779 43.9995 46.0779C43.4588 46.0779 42.9355 45.8869 42.522 45.5387C37.742 41.5307 35 37.7357 35 35.1257C34.9362 34.0629 35.2942 33.0179 35.9963 32.2175C36.6984 31.4171 37.6879 30.926 38.75 30.8507C39.812 30.926 40.8015 31.4171 41.5036 32.2175C42.2057 33.0179 42.5637 34.0629 42.5 35.1257C42.5 35.5235 42.658 35.9051 42.9393 36.1864C43.2206 36.4677 43.6021 36.6257 44 36.6257C44.3978 36.6257 44.7793 36.4677 45.0606 36.1864C45.3419 35.9051 45.5 35.5235 45.5 35.1257C45.4362 34.0629 45.7942 33.0179 46.4963 32.2175C47.1984 31.4171 48.1879 30.926 49.25 30.8507C50.312 30.926 51.3015 31.4171 52.0036 32.2175C52.7057 33.0179 53.0637 34.0629 53 35.1257C53 37.7357 50.258 41.5307 45.477 45.5387Z" fill="white"/>
</g>
<defs>
<clipPath id="clip0_5102_44">
<rect width="24" height="24" fill="white" transform="translate(32 26)"/>
</clipPath>
</defs>
</svg>
