<svg width="497" height="28" viewBox="0 0 497 28" fill="none" xmlns="http://www.w3.org/2000/svg">
<path d="M15.0469 11.2031H12.6094C12.5156 10.6823 12.3411 10.224 12.0859 9.82812C11.8307 9.43229 11.5182 9.09635 11.1484 8.82031C10.7786 8.54427 10.3646 8.33594 9.90625 8.19531C9.45313 8.05469 8.97135 7.98437 8.46094 7.98437C7.53906 7.98437 6.71354 8.21615 5.98438 8.67969C5.26042 9.14323 4.6875 9.82292 4.26563 10.7187C3.84896 11.6146 3.64062 12.7083 3.64062 14C3.64062 15.3021 3.84896 16.401 4.26563 17.2969C4.6875 18.1927 5.26302 18.8698 5.99219 19.3281C6.72135 19.7865 7.54167 20.0156 8.45313 20.0156C8.95833 20.0156 9.4375 19.9479 9.89063 19.8125C10.349 19.6719 10.763 19.4661 11.1328 19.1953C11.5026 18.9245 11.8151 18.5937 12.0703 18.2031C12.3307 17.8073 12.5104 17.3542 12.6094 16.8438L15.0469 16.8516C14.9167 17.638 14.6641 18.362 14.2891 19.0234C13.9193 19.6797 13.4427 20.2474 12.8594 20.7266C12.2813 21.2005 11.6198 21.5677 10.875 21.8281C10.1302 22.0885 9.31771 22.2187 8.4375 22.2187C7.05208 22.2187 5.81771 21.8906 4.73438 21.2344C3.65104 20.5729 2.79688 19.6276 2.17188 18.3984C1.55208 17.1693 1.24219 15.7031 1.24219 14C1.24219 12.2917 1.55469 10.8255 2.17969 9.60156C2.80469 8.3724 3.65885 7.42969 4.74219 6.77344C5.82552 6.11198 7.05729 5.78125 8.4375 5.78125C9.28646 5.78125 10.0781 5.90365 10.8125 6.14844C11.5521 6.38802 12.2161 6.74219 12.8047 7.21094C13.3932 7.67448 13.8802 8.24219 14.2656 8.91406C14.651 9.58073 14.9115 10.3437 15.0469 11.2031ZM22.8027 22.2422C21.6777 22.2422 20.696 21.9844 19.8574 21.4687C19.0189 20.9531 18.3678 20.2318 17.9043 19.3047C17.4408 18.3776 17.209 17.2943 17.209 16.0547C17.209 14.8099 17.4408 13.7214 17.9043 12.7891C18.3678 11.8568 19.0189 11.1328 19.8574 10.6172C20.696 10.1016 21.6777 9.84375 22.8027 9.84375C23.9277 9.84375 24.9095 10.1016 25.748 10.6172C26.5866 11.1328 27.2376 11.8568 27.7012 12.7891C28.1647 13.7214 28.3965 14.8099 28.3965 16.0547C28.3965 17.2943 28.1647 18.3776 27.7012 19.3047C27.2376 20.2318 26.5866 20.9531 25.748 21.4687C24.9095 21.9844 23.9277 22.2422 22.8027 22.2422ZM22.8105 20.2812C23.5397 20.2812 24.1439 20.0885 24.623 19.7031C25.1022 19.3177 25.4564 18.8047 25.6855 18.1641C25.9199 17.5234 26.0371 16.8177 26.0371 16.0469C26.0371 15.2812 25.9199 14.5781 25.6855 13.9375C25.4564 13.2917 25.1022 12.7734 24.623 12.3828C24.1439 11.9922 23.5397 11.7969 22.8105 11.7969C22.0762 11.7969 21.4668 11.9922 20.9824 12.3828C20.5033 12.7734 20.1465 13.2917 19.9121 13.9375C19.6829 14.5781 19.5684 15.2812 19.5684 16.0469C19.5684 16.8177 19.6829 17.5234 19.9121 18.1641C20.1465 18.8047 20.5033 19.3177 20.9824 19.7031C21.4668 20.0885 22.0762 20.2812 22.8105 20.2812ZM31.0039 26.5V10H33.2852V11.9453H33.4805C33.6159 11.6953 33.8112 11.4062 34.0664 11.0781C34.3216 10.75 34.6758 10.4635 35.1289 10.2187C35.582 9.96875 36.181 9.84375 36.9258 9.84375C37.8945 9.84375 38.7591 10.0885 39.5195 10.5781C40.2799 11.0677 40.8763 11.7734 41.3086 12.6953C41.7461 13.6172 41.9648 14.7266 41.9648 16.0234C41.9648 17.3203 41.7487 18.4323 41.3164 19.3594C40.8841 20.2812 40.2904 20.9922 39.5352 21.4922C38.7799 21.987 37.918 22.2344 36.9492 22.2344C36.2201 22.2344 35.6237 22.112 35.1602 21.8672C34.7018 21.6224 34.3424 21.3359 34.082 21.0078C33.8216 20.6797 33.6211 20.388 33.4805 20.1328H33.3398V26.5H31.0039ZM33.293 16C33.293 16.8437 33.4154 17.5833 33.6602 18.2188C33.9049 18.8542 34.2591 19.3516 34.7227 19.7109C35.1862 20.0651 35.7539 20.2422 36.4258 20.2422C37.1237 20.2422 37.707 20.0573 38.1758 19.6875C38.6445 19.3125 38.9987 18.8047 39.2383 18.1641C39.4831 17.5234 39.6055 16.8021 39.6055 16C39.6055 15.2083 39.4857 14.4974 39.2461 13.8672C39.0117 13.237 38.6576 12.7396 38.1836 12.375C37.7148 12.0104 37.1289 11.8281 36.4258 11.8281C35.7487 11.8281 35.1758 12.0026 34.707 12.3516C34.2435 12.7005 33.8919 13.1875 33.6523 13.8125C33.4128 14.4375 33.293 15.1667 33.293 16ZM45.6504 26.5C45.3014 26.5 44.9837 26.4714 44.6973 26.4141C44.4108 26.362 44.1973 26.3047 44.0566 26.2422L44.6191 24.3281C45.0462 24.4427 45.4264 24.4922 45.7598 24.4766C46.0931 24.4609 46.3874 24.3359 46.6426 24.1016C46.903 23.8672 47.1322 23.4844 47.3301 22.9531L47.6191 22.1563L43.2285 10H45.7285L48.7676 19.3125H48.8926L51.9316 10H54.4395L49.4941 23.6016C49.265 24.2266 48.9733 24.7552 48.6191 25.1875C48.265 25.625 47.8431 25.9531 47.3535 26.1719C46.8639 26.3906 46.2962 26.5 45.6504 26.5ZM56.6348 22V10H58.8926V11.9062H59.0176C59.2363 11.2604 59.6217 10.7526 60.1738 10.3828C60.7311 10.0078 61.3613 9.82031 62.0645 9.82031C62.2103 9.82031 62.3822 9.82552 62.5801 9.83594C62.7832 9.84635 62.9421 9.85937 63.0566 9.875V12.1094C62.9629 12.0833 62.7962 12.0547 62.5566 12.0234C62.3171 11.987 62.0775 11.9687 61.8379 11.9687C61.2858 11.9687 60.7936 12.0859 60.3613 12.3203C59.9342 12.5495 59.5957 12.8698 59.3457 13.2812C59.0957 13.6875 58.9707 14.151 58.9707 14.6719V22H56.6348ZM65.0781 22V10H67.4141V22H65.0781ZM66.2578 8.14844C65.8516 8.14844 65.5026 8.01302 65.2109 7.74219C64.9245 7.46615 64.7813 7.13802 64.7813 6.75781C64.7813 6.3724 64.9245 6.04427 65.2109 5.77344C65.5026 5.4974 65.8516 5.35937 66.2578 5.35937C66.6641 5.35937 67.0104 5.4974 67.2969 5.77344C67.5885 6.04427 67.7344 6.3724 67.7344 6.75781C67.7344 7.13802 67.5885 7.46615 67.2969 7.74219C67.0104 8.01302 66.6641 8.14844 66.2578 8.14844ZM75.5879 26.75C74.6348 26.75 73.8145 26.625 73.127 26.375C72.4447 26.125 71.8874 25.7943 71.4551 25.3828C71.0228 24.9714 70.6999 24.5208 70.4863 24.0313L72.4941 23.2031C72.6348 23.4323 72.8223 23.6745 73.0566 23.9297C73.2962 24.1901 73.6191 24.4115 74.0254 24.5938C74.4368 24.776 74.9655 24.8672 75.6113 24.8672C76.4967 24.8672 77.2285 24.651 77.8066 24.2188C78.3848 23.7917 78.6738 23.1094 78.6738 22.1719V19.8125H78.5254C78.3848 20.0677 78.1816 20.3516 77.916 20.6641C77.6556 20.9766 77.2962 21.2474 76.8379 21.4766C76.3796 21.7057 75.7832 21.8203 75.0488 21.8203C74.1009 21.8203 73.2467 21.599 72.4863 21.1562C71.7311 20.7083 71.1322 20.0495 70.6895 19.1797C70.252 18.3047 70.0332 17.2292 70.0332 15.9531C70.0332 14.6771 70.2493 13.5833 70.6816 12.6719C71.1191 11.7604 71.7181 11.0625 72.4785 10.5781C73.2389 10.0885 74.1009 9.84375 75.0645 9.84375C75.8092 9.84375 76.4108 9.96875 76.8691 10.2187C77.3275 10.4635 77.6842 10.75 77.9395 11.0781C78.1999 11.4062 78.4004 11.6953 78.541 11.9453H78.7129V10H81.002V22.2656C81.002 23.2969 80.7624 24.1432 80.2832 24.8047C79.804 25.4661 79.1556 25.9557 78.3379 26.2734C77.5254 26.5911 76.6087 26.75 75.5879 26.75ZM75.5645 19.8828C76.2363 19.8828 76.804 19.7266 77.2676 19.4141C77.7363 19.0964 78.0905 18.6432 78.3301 18.0547C78.5749 17.4609 78.6973 16.75 78.6973 15.9219C78.6973 15.1146 78.5775 14.4036 78.3379 13.7891C78.0983 13.1745 77.7467 12.6953 77.2832 12.3516C76.8197 12.0026 76.2467 11.8281 75.5645 11.8281C74.8613 11.8281 74.2754 12.0104 73.8066 12.375C73.3379 12.7344 72.9837 13.224 72.7441 13.8437C72.5098 14.4635 72.3926 15.1562 72.3926 15.9219C72.3926 16.7083 72.5124 17.3984 72.752 17.9922C72.9915 18.5859 73.3457 19.0495 73.8145 19.3828C74.2884 19.7161 74.8717 19.8828 75.5645 19.8828ZM86.4707 14.875V22H84.1348V6H86.4395V11.9531H86.5879C86.8691 11.3073 87.2988 10.7943 87.877 10.4141C88.4551 10.0339 89.2103 9.84375 90.1426 9.84375C90.9655 9.84375 91.6842 10.013 92.2988 10.3516C92.9186 10.6901 93.3978 11.1953 93.7363 11.8672C94.0801 12.5339 94.252 13.3672 94.252 14.3672V22H91.916V14.6484C91.916 13.7682 91.6895 13.0859 91.2363 12.6016C90.7832 12.112 90.153 11.8672 89.3457 11.8672C88.7936 11.8672 88.2988 11.9844 87.8613 12.2187C87.429 12.4531 87.0879 12.7969 86.8379 13.25C86.5931 13.6979 86.4707 14.2396 86.4707 14.875ZM102.971 10V11.875H96.416V10H102.971ZM98.1738 7.125H100.51V18.4766C100.51 18.9297 100.577 19.2708 100.713 19.5C100.848 19.724 101.023 19.8776 101.236 19.9609C101.455 20.0391 101.692 20.0781 101.947 20.0781C102.135 20.0781 102.299 20.0651 102.439 20.0391C102.58 20.013 102.689 19.9922 102.768 19.9766L103.189 21.9062C103.054 21.9583 102.861 22.0104 102.611 22.0625C102.361 22.1198 102.049 22.151 101.674 22.1563C101.059 22.1667 100.486 22.0573 99.9551 21.8281C99.4238 21.599 98.9941 21.2448 98.666 20.7656C98.3379 20.2865 98.1738 19.6849 98.1738 18.9609V7.125ZM146.279 22V20.25L151.693 14.6406C152.271 14.0312 152.748 13.4974 153.123 13.0391C153.503 12.5755 153.787 12.1354 153.975 11.7187C154.162 11.3021 154.256 10.8594 154.256 10.3906C154.256 9.85937 154.131 9.40104 153.881 9.01562C153.631 8.625 153.29 8.32552 152.857 8.11719C152.425 7.90365 151.938 7.79687 151.396 7.79687C150.824 7.79687 150.324 7.91406 149.896 8.14844C149.469 8.38281 149.141 8.71354 148.912 9.14062C148.683 9.56771 148.568 10.0677 148.568 10.6406H146.264C146.264 9.66667 146.488 8.8151 146.936 8.08594C147.383 7.35677 147.998 6.79167 148.779 6.39062C149.561 5.98437 150.449 5.78125 151.443 5.78125C152.449 5.78125 153.334 5.98177 154.1 6.38281C154.87 6.77865 155.472 7.32031 155.904 8.00781C156.337 8.6901 156.553 9.46094 156.553 10.3203C156.553 10.9141 156.441 11.4948 156.217 12.0625C155.998 12.6302 155.615 13.263 155.068 13.9609C154.521 14.6536 153.761 15.4948 152.787 16.4844L149.607 19.8125V19.9297H156.811V22H146.279ZM165.342 22.2656C164.107 22.2604 163.053 21.9349 162.178 21.2891C161.303 20.6432 160.633 19.7031 160.17 18.4687C159.706 17.2344 159.475 15.7474 159.475 14.0078C159.475 12.2734 159.706 10.7917 160.17 9.5625C160.639 8.33333 161.311 7.39583 162.186 6.75C163.066 6.10417 164.118 5.78125 165.342 5.78125C166.566 5.78125 167.615 6.10677 168.49 6.75781C169.365 7.40365 170.035 8.34115 170.498 9.57031C170.967 10.7943 171.201 12.2734 171.201 14.0078C171.201 15.7526 170.969 17.2422 170.506 18.4766C170.042 19.7057 169.373 20.6458 168.498 21.2969C167.623 21.9427 166.571 22.2656 165.342 22.2656ZM165.342 20.1797C166.425 20.1797 167.271 19.651 167.881 18.5937C168.495 17.5365 168.803 16.0078 168.803 14.0078C168.803 12.6797 168.662 11.5573 168.381 10.6406C168.105 9.71875 167.706 9.02083 167.186 8.54687C166.67 8.06771 166.055 7.82812 165.342 7.82812C164.264 7.82812 163.417 8.35937 162.803 9.42187C162.188 10.4844 161.878 12.013 161.873 14.0078C161.873 15.3411 162.011 16.4688 162.287 17.3906C162.568 18.3073 162.967 19.0026 163.482 19.4766C163.998 19.9453 164.618 20.1797 165.342 20.1797ZM173.973 22V20.25L179.387 14.6406C179.965 14.0312 180.441 13.4974 180.816 13.0391C181.197 12.5755 181.48 12.1354 181.668 11.7187C181.855 11.3021 181.949 10.8594 181.949 10.3906C181.949 9.85937 181.824 9.40104 181.574 9.01562C181.324 8.625 180.983 8.32552 180.551 8.11719C180.118 7.90365 179.632 7.79687 179.09 7.79687C178.517 7.79687 178.017 7.91406 177.59 8.14844C177.163 8.38281 176.835 8.71354 176.605 9.14062C176.376 9.56771 176.262 10.0677 176.262 10.6406H173.957C173.957 9.66667 174.181 8.8151 174.629 8.08594C175.077 7.35677 175.691 6.79167 176.473 6.39062C177.254 5.98437 178.142 5.78125 179.137 5.78125C180.142 5.78125 181.027 5.98177 181.793 6.38281C182.564 6.77865 183.165 7.32031 183.598 8.00781C184.03 8.6901 184.246 9.46094 184.246 10.3203C184.246 10.9141 184.134 11.4948 183.91 12.0625C183.691 12.6302 183.309 13.263 182.762 13.9609C182.215 14.6536 181.454 15.4948 180.48 16.4844L177.301 19.8125V19.9297H184.504V22H173.973ZM193.035 22.2187C191.962 22.2187 191.004 22.0339 190.16 21.6641C189.322 21.2943 188.658 20.7812 188.168 20.125C187.684 19.4635 187.423 18.6979 187.387 17.8281H189.84C189.871 18.3021 190.03 18.7135 190.316 19.0625C190.608 19.4062 190.988 19.6719 191.457 19.8594C191.926 20.0469 192.447 20.1406 193.02 20.1406C193.65 20.1406 194.207 20.0312 194.691 19.8125C195.181 19.5937 195.564 19.2891 195.84 18.8984C196.116 18.5026 196.254 18.0469 196.254 17.5312C196.254 16.9948 196.116 16.5234 195.84 16.1172C195.569 15.7057 195.171 15.3828 194.645 15.1484C194.124 14.9141 193.493 14.7969 192.754 14.7969H191.402V12.8281H192.754C193.348 12.8281 193.868 12.7214 194.316 12.5078C194.77 12.2943 195.124 11.9974 195.379 11.6172C195.634 11.2318 195.762 10.7812 195.762 10.2656C195.762 9.77083 195.65 9.34115 195.426 8.97656C195.207 8.60677 194.895 8.31771 194.488 8.10937C194.087 7.90104 193.613 7.79687 193.066 7.79687C192.546 7.79687 192.059 7.89323 191.605 8.08594C191.158 8.27344 190.793 8.54427 190.512 8.89844C190.23 9.2474 190.079 9.66667 190.059 10.1562H187.723C187.749 9.29167 188.004 8.53125 188.488 7.875C188.978 7.21875 189.624 6.70573 190.426 6.33594C191.228 5.96615 192.118 5.78125 193.098 5.78125C194.124 5.78125 195.009 5.98177 195.754 6.38281C196.504 6.77865 197.082 7.30729 197.488 7.96875C197.9 8.63021 198.103 9.35417 198.098 10.1406C198.103 11.0365 197.853 11.7969 197.348 12.4219C196.848 13.0469 196.181 13.4661 195.348 13.6797V13.8047C196.41 13.9661 197.233 14.388 197.816 15.0703C198.405 15.7526 198.697 16.599 198.691 17.6094C198.697 18.4896 198.452 19.2786 197.957 19.9766C197.467 20.6745 196.798 21.224 195.949 21.625C195.1 22.0208 194.129 22.2187 193.035 22.2187ZM212.865 22H207.686V6H213.029C214.597 6 215.943 6.32031 217.068 6.96094C218.193 7.59635 219.055 8.51042 219.654 9.70312C220.258 10.8906 220.561 12.3151 220.561 13.9766C220.561 15.6432 220.256 17.0755 219.646 18.2734C219.042 19.4714 218.167 20.3932 217.021 21.0391C215.876 21.6797 214.49 22 212.865 22ZM210.1 19.8906H212.732C213.951 19.8906 214.964 19.6615 215.771 19.2031C216.579 18.7396 217.183 18.0703 217.584 17.1953C217.985 16.3151 218.186 15.2422 218.186 13.9766C218.186 12.7214 217.985 11.6562 217.584 10.7812C217.188 9.90625 216.597 9.24219 215.811 8.78906C215.024 8.33594 214.048 8.10937 212.881 8.10937H210.1V19.8906ZM232.367 12.9297L230.25 13.3047C230.161 13.0339 230.021 12.776 229.828 12.5312C229.641 12.2865 229.385 12.0859 229.063 11.9297C228.74 11.7734 228.336 11.6953 227.852 11.6953C227.19 11.6953 226.638 11.8437 226.195 12.1406C225.753 12.4323 225.531 12.8099 225.531 13.2734C225.531 13.6745 225.68 13.9974 225.977 14.2422C226.273 14.487 226.753 14.6875 227.414 14.8437L229.32 15.2812C230.424 15.5365 231.247 15.9297 231.789 16.4609C232.331 16.9922 232.602 17.6823 232.602 18.5313C232.602 19.25 232.393 19.8906 231.977 20.4531C231.565 21.0104 230.99 21.4479 230.25 21.7656C229.516 22.0833 228.664 22.2422 227.695 22.2422C226.352 22.2422 225.255 21.9557 224.406 21.3828C223.557 20.8047 223.036 19.9844 222.844 18.9219L225.102 18.5781C225.242 19.1667 225.531 19.612 225.969 19.9141C226.406 20.2109 226.977 20.3594 227.68 20.3594C228.445 20.3594 229.057 20.2005 229.516 19.8828C229.974 19.5599 230.203 19.1667 230.203 18.7031C230.203 18.3281 230.063 18.013 229.781 17.7578C229.505 17.5026 229.081 17.3099 228.508 17.1797L226.477 16.7344C225.357 16.4792 224.529 16.0729 223.992 15.5156C223.461 14.9583 223.195 14.2526 223.195 13.3984C223.195 12.6901 223.393 12.0703 223.789 11.5391C224.185 11.0078 224.732 10.5937 225.43 10.2969C226.128 9.99479 226.927 9.84375 227.828 9.84375C229.125 9.84375 230.146 10.125 230.891 10.6875C231.635 11.2448 232.128 11.9922 232.367 12.9297ZM240.225 22.2422C239.063 22.2422 238.063 21.9792 237.225 21.4531C236.391 20.9219 235.751 20.1901 235.303 19.2578C234.855 18.3255 234.631 17.2578 234.631 16.0547C234.631 14.8359 234.86 13.7604 235.318 12.8281C235.777 11.8906 236.423 11.1589 237.256 10.6328C238.089 10.1068 239.071 9.84375 240.201 9.84375C241.113 9.84375 241.925 10.013 242.639 10.3516C243.352 10.6849 243.928 11.1536 244.365 11.7578C244.808 12.362 245.071 13.0677 245.154 13.875H242.881C242.756 13.3125 242.469 12.8281 242.021 12.4219C241.579 12.0156 240.985 11.8125 240.24 11.8125C239.589 11.8125 239.019 11.9844 238.529 12.3281C238.045 12.6667 237.667 13.151 237.396 13.7812C237.126 14.4062 236.99 15.1458 236.99 16C236.99 16.875 237.123 17.6302 237.389 18.2656C237.654 18.901 238.029 19.3932 238.514 19.7422C239.003 20.0911 239.579 20.2656 240.24 20.2656C240.683 20.2656 241.084 20.1849 241.443 20.0234C241.808 19.8568 242.113 19.6198 242.357 19.3125C242.607 19.0052 242.782 18.6354 242.881 18.2031H245.154C245.071 18.9792 244.818 19.6719 244.396 20.2812C243.975 20.8906 243.41 21.3698 242.701 21.7187C241.998 22.0677 241.173 22.2422 240.225 22.2422ZM252.707 22.2422C251.582 22.2422 250.6 21.9844 249.762 21.4687C248.923 20.9531 248.272 20.2318 247.809 19.3047C247.345 18.3776 247.113 17.2943 247.113 16.0547C247.113 14.8099 247.345 13.7214 247.809 12.7891C248.272 11.8568 248.923 11.1328 249.762 10.6172C250.6 10.1016 251.582 9.84375 252.707 9.84375C253.832 9.84375 254.814 10.1016 255.652 10.6172C256.491 11.1328 257.142 11.8568 257.605 12.7891C258.069 13.7214 258.301 14.8099 258.301 16.0547C258.301 17.2943 258.069 18.3776 257.605 19.3047C257.142 20.2318 256.491 20.9531 255.652 21.4687C254.814 21.9844 253.832 22.2422 252.707 22.2422ZM252.715 20.2812C253.444 20.2812 254.048 20.0885 254.527 19.7031C255.007 19.3177 255.361 18.8047 255.59 18.1641C255.824 17.5234 255.941 16.8177 255.941 16.0469C255.941 15.2812 255.824 14.5781 255.59 13.9375C255.361 13.2917 255.007 12.7734 254.527 12.3828C254.048 11.9922 253.444 11.7969 252.715 11.7969C251.98 11.7969 251.371 11.9922 250.887 12.3828C250.408 12.7734 250.051 13.2917 249.816 13.9375C249.587 14.5781 249.473 15.2812 249.473 16.0469C249.473 16.8177 249.587 17.5234 249.816 18.1641C250.051 18.8047 250.408 19.3177 250.887 19.7031C251.371 20.0885 251.98 20.2812 252.715 20.2812ZM265.4 22.2344C264.432 22.2344 263.567 21.987 262.807 21.4922C262.051 20.9922 261.458 20.2812 261.025 19.3594C260.598 18.4323 260.385 17.3203 260.385 16.0234C260.385 14.7266 260.601 13.6172 261.033 12.6953C261.471 11.7734 262.07 11.0677 262.83 10.5781C263.59 10.0885 264.452 9.84375 265.416 9.84375C266.161 9.84375 266.76 9.96875 267.213 10.2187C267.671 10.4635 268.025 10.75 268.275 11.0781C268.531 11.4062 268.729 11.6953 268.869 11.9453H269.01V6H271.346V22H269.064V20.1328H268.869C268.729 20.388 268.525 20.6797 268.26 21.0078C267.999 21.3359 267.64 21.6224 267.182 21.8672C266.723 22.112 266.13 22.2344 265.4 22.2344ZM265.916 20.2422C266.588 20.2422 267.156 20.0651 267.619 19.7109C268.088 19.3516 268.442 18.8542 268.682 18.2188C268.926 17.5833 269.049 16.8437 269.049 16C269.049 15.1667 268.929 14.4375 268.689 13.8125C268.45 13.1875 268.098 12.7005 267.635 12.3516C267.171 12.0026 266.598 11.8281 265.916 11.8281C265.213 11.8281 264.627 12.0104 264.158 12.375C263.689 12.7396 263.335 13.237 263.096 13.8672C262.861 14.4974 262.744 15.2083 262.744 16C262.744 16.8021 262.864 17.5234 263.104 18.1641C263.343 18.8047 263.697 19.3125 264.166 19.6875C264.64 20.0573 265.223 20.2422 265.916 20.2422ZM279.852 22.2422C278.669 22.2422 277.651 21.9896 276.797 21.4844C275.948 20.974 275.292 20.2578 274.828 19.3359C274.37 18.4089 274.141 17.3229 274.141 16.0781C274.141 14.849 274.37 13.7656 274.828 12.8281C275.292 11.8906 275.938 11.1589 276.766 10.6328C277.599 10.1068 278.573 9.84375 279.688 9.84375C280.365 9.84375 281.021 9.95573 281.656 10.1797C282.292 10.4036 282.862 10.7552 283.367 11.2344C283.872 11.7135 284.271 12.3359 284.563 13.1016C284.854 13.862 285 14.7865 285 15.875V16.7031H275.461V14.9531H282.711C282.711 14.3385 282.586 13.7943 282.336 13.3203C282.086 12.8411 281.734 12.4635 281.281 12.1875C280.833 11.9115 280.307 11.7734 279.703 11.7734C279.047 11.7734 278.474 11.9349 277.984 12.2578C277.5 12.5755 277.125 12.9922 276.859 13.5078C276.599 14.0182 276.469 14.5729 276.469 15.1719V16.5391C276.469 17.3411 276.609 18.0234 276.891 18.5859C277.177 19.1484 277.576 19.5781 278.086 19.875C278.596 20.1667 279.193 20.3125 279.875 20.3125C280.318 20.3125 280.721 20.25 281.086 20.125C281.451 19.9948 281.766 19.8021 282.031 19.5469C282.297 19.2917 282.5 18.9766 282.641 18.6016L284.852 19C284.674 19.651 284.357 20.2214 283.898 20.7109C283.445 21.1953 282.875 21.5729 282.188 21.8437C281.505 22.1094 280.727 22.2422 279.852 22.2422ZM296.656 0.84375V27.1562H294.563V0.84375H296.656ZM308.316 22H305.754L311.512 6H314.301L320.059 22H317.496L312.973 8.90625H312.848L308.316 22ZM308.746 15.7344H317.059V17.7656H308.746V15.7344ZM324.518 6V22H322.182V6H324.518ZM329.996 6V22H327.66V6H329.996ZM338.961 22V10H341.219V11.9062H341.344C341.563 11.2604 341.948 10.7526 342.5 10.3828C343.057 10.0078 343.688 9.82031 344.391 9.82031C344.536 9.82031 344.708 9.82552 344.906 9.83594C345.109 9.84635 345.268 9.85937 345.383 9.875V12.1094C345.289 12.0833 345.122 12.0547 344.883 12.0234C344.643 11.987 344.404 11.9687 344.164 11.9687C343.612 11.9687 343.12 12.0859 342.688 12.3203C342.26 12.5495 341.922 12.8698 341.672 13.2812C341.422 13.6875 341.297 14.151 341.297 14.6719V22H338.961ZM347.404 22V10H349.74V22H347.404ZM348.584 8.14844C348.178 8.14844 347.829 8.01302 347.537 7.74219C347.251 7.46615 347.107 7.13802 347.107 6.75781C347.107 6.3724 347.251 6.04427 347.537 5.77344C347.829 5.4974 348.178 5.35937 348.584 5.35937C348.99 5.35937 349.337 5.4974 349.623 5.77344C349.915 6.04427 350.061 6.3724 350.061 6.75781C350.061 7.13802 349.915 7.46615 349.623 7.74219C349.337 8.01302 348.99 8.14844 348.584 8.14844ZM357.914 26.75C356.961 26.75 356.141 26.625 355.453 26.375C354.771 26.125 354.214 25.7943 353.781 25.3828C353.349 24.9714 353.026 24.5208 352.813 24.0313L354.82 23.2031C354.961 23.4323 355.148 23.6745 355.383 23.9297C355.622 24.1901 355.945 24.4115 356.352 24.5938C356.763 24.776 357.292 24.8672 357.938 24.8672C358.823 24.8672 359.555 24.651 360.133 24.2188C360.711 23.7917 361 23.1094 361 22.1719V19.8125H360.852C360.711 20.0677 360.508 20.3516 360.242 20.6641C359.982 20.9766 359.622 21.2474 359.164 21.4766C358.706 21.7057 358.109 21.8203 357.375 21.8203C356.427 21.8203 355.573 21.599 354.812 21.1562C354.057 20.7083 353.458 20.0495 353.016 19.1797C352.578 18.3047 352.359 17.2292 352.359 15.9531C352.359 14.6771 352.576 13.5833 353.008 12.6719C353.445 11.7604 354.044 11.0625 354.805 10.5781C355.565 10.0885 356.427 9.84375 357.391 9.84375C358.135 9.84375 358.737 9.96875 359.195 10.2187C359.654 10.4635 360.01 10.75 360.266 11.0781C360.526 11.4062 360.727 11.6953 360.867 11.9453H361.039V10H363.328V22.2656C363.328 23.2969 363.089 24.1432 362.609 24.8047C362.13 25.4661 361.482 25.9557 360.664 26.2734C359.852 26.5911 358.935 26.75 357.914 26.75ZM357.891 19.8828C358.563 19.8828 359.13 19.7266 359.594 19.4141C360.063 19.0964 360.417 18.6432 360.656 18.0547C360.901 17.4609 361.023 16.75 361.023 15.9219C361.023 15.1146 360.904 14.4036 360.664 13.7891C360.424 13.1745 360.073 12.6953 359.609 12.3516C359.146 12.0026 358.573 11.8281 357.891 11.8281C357.188 11.8281 356.602 12.0104 356.133 12.375C355.664 12.7344 355.31 13.224 355.07 13.8437C354.836 14.4635 354.719 15.1562 354.719 15.9219C354.719 16.7083 354.839 17.3984 355.078 17.9922C355.318 18.5859 355.672 19.0495 356.141 19.3828C356.615 19.7161 357.198 19.8828 357.891 19.8828ZM368.797 14.875V22H366.461V6H368.766V11.9531H368.914C369.195 11.3073 369.625 10.7943 370.203 10.4141C370.781 10.0339 371.536 9.84375 372.469 9.84375C373.292 9.84375 374.01 10.013 374.625 10.3516C375.245 10.6901 375.724 11.1953 376.062 11.8672C376.406 12.5339 376.578 13.3672 376.578 14.3672V22H374.242V14.6484C374.242 13.7682 374.016 13.0859 373.563 12.6016C373.109 12.112 372.479 11.8672 371.672 11.8672C371.12 11.8672 370.625 11.9844 370.188 12.2187C369.755 12.4531 369.414 12.7969 369.164 13.25C368.919 13.6979 368.797 14.2396 368.797 14.875ZM385.297 10V11.875H378.742V10H385.297ZM380.5 7.125H382.836V18.4766C382.836 18.9297 382.904 19.2708 383.039 19.5C383.174 19.724 383.349 19.8776 383.563 19.9609C383.781 20.0391 384.018 20.0781 384.273 20.0781C384.461 20.0781 384.625 20.0651 384.766 20.0391C384.906 20.013 385.016 19.9922 385.094 19.9766L385.516 21.9062C385.38 21.9583 385.188 22.0104 384.938 22.0625C384.688 22.1198 384.375 22.151 384 22.1563C383.385 22.1667 382.813 22.0573 382.281 21.8281C381.75 21.599 381.32 21.2448 380.992 20.7656C380.664 20.2865 380.5 19.6849 380.5 18.9609V7.125ZM396.68 12.9297L394.563 13.3047C394.474 13.0339 394.333 12.776 394.141 12.5312C393.953 12.2865 393.698 12.0859 393.375 11.9297C393.052 11.7734 392.648 11.6953 392.164 11.6953C391.503 11.6953 390.951 11.8437 390.508 12.1406C390.065 12.4323 389.844 12.8099 389.844 13.2734C389.844 13.6745 389.992 13.9974 390.289 14.2422C390.586 14.487 391.065 14.6875 391.727 14.8437L393.633 15.2812C394.737 15.5365 395.56 15.9297 396.102 16.4609C396.643 16.9922 396.914 17.6823 396.914 18.5313C396.914 19.25 396.706 19.8906 396.289 20.4531C395.878 21.0104 395.302 21.4479 394.563 21.7656C393.828 22.0833 392.977 22.2422 392.008 22.2422C390.664 22.2422 389.568 21.9557 388.719 21.3828C387.87 20.8047 387.349 19.9844 387.156 18.9219L389.414 18.5781C389.555 19.1667 389.844 19.612 390.281 19.9141C390.719 20.2109 391.289 20.3594 391.992 20.3594C392.758 20.3594 393.37 20.2005 393.828 19.8828C394.286 19.5599 394.516 19.1667 394.516 18.7031C394.516 18.3281 394.375 18.013 394.094 17.7578C393.818 17.5026 393.393 17.3099 392.82 17.1797L390.789 16.7344C389.669 16.4792 388.841 16.0729 388.305 15.5156C387.773 14.9583 387.508 14.2526 387.508 13.3984C387.508 12.6901 387.706 12.0703 388.102 11.5391C388.497 11.0078 389.044 10.5937 389.742 10.2969C390.44 9.99479 391.24 9.84375 392.141 9.84375C393.438 9.84375 394.458 10.125 395.203 10.6875C395.948 11.2448 396.44 11.9922 396.68 12.9297ZM405.305 22V10H407.563V11.9062H407.688C407.906 11.2604 408.292 10.7526 408.844 10.3828C409.401 10.0078 410.031 9.82031 410.734 9.82031C410.88 9.82031 411.052 9.82552 411.25 9.83594C411.453 9.84635 411.612 9.85937 411.727 9.875V12.1094C411.633 12.0833 411.466 12.0547 411.227 12.0234C410.987 11.987 410.747 11.9687 410.508 11.9687C409.956 11.9687 409.464 12.0859 409.031 12.3203C408.604 12.5495 408.266 12.8698 408.016 13.2812C407.766 13.6875 407.641 14.151 407.641 14.6719V22H405.305ZM418.49 22.2422C417.308 22.2422 416.29 21.9896 415.436 21.4844C414.587 20.974 413.93 20.2578 413.467 19.3359C413.008 18.4089 412.779 17.3229 412.779 16.0781C412.779 14.849 413.008 13.7656 413.467 12.8281C413.93 11.8906 414.576 11.1589 415.404 10.6328C416.238 10.1068 417.212 9.84375 418.326 9.84375C419.003 9.84375 419.66 9.95573 420.295 10.1797C420.93 10.4036 421.501 10.7552 422.006 11.2344C422.511 11.7135 422.91 12.3359 423.201 13.1016C423.493 13.862 423.639 14.7865 423.639 15.875V16.7031H414.1V14.9531H421.35C421.35 14.3385 421.225 13.7943 420.975 13.3203C420.725 12.8411 420.373 12.4635 419.92 12.1875C419.472 11.9115 418.946 11.7734 418.342 11.7734C417.686 11.7734 417.113 11.9349 416.623 12.2578C416.139 12.5755 415.764 12.9922 415.498 13.5078C415.238 14.0182 415.107 14.5729 415.107 15.1719V16.5391C415.107 17.3411 415.248 18.0234 415.529 18.5859C415.816 19.1484 416.214 19.5781 416.725 19.875C417.235 20.1667 417.831 20.3125 418.514 20.3125C418.956 20.3125 419.36 20.25 419.725 20.125C420.089 19.9948 420.404 19.8021 420.67 19.5469C420.936 19.2917 421.139 18.9766 421.279 18.6016L423.49 19C423.313 19.651 422.995 20.2214 422.537 20.7109C422.084 21.1953 421.514 21.5729 420.826 21.8437C420.144 22.1094 419.365 22.2422 418.49 22.2422ZM435.223 12.9297L433.105 13.3047C433.017 13.0339 432.876 12.776 432.684 12.5312C432.496 12.2865 432.241 12.0859 431.918 11.9297C431.595 11.7734 431.191 11.6953 430.707 11.6953C430.046 11.6953 429.493 11.8437 429.051 12.1406C428.608 12.4323 428.387 12.8099 428.387 13.2734C428.387 13.6745 428.535 13.9974 428.832 14.2422C429.129 14.487 429.608 14.6875 430.27 14.8437L432.176 15.2812C433.28 15.5365 434.103 15.9297 434.645 16.4609C435.186 16.9922 435.457 17.6823 435.457 18.5313C435.457 19.25 435.249 19.8906 434.832 20.4531C434.421 21.0104 433.845 21.4479 433.105 21.7656C432.371 22.0833 431.52 22.2422 430.551 22.2422C429.207 22.2422 428.111 21.9557 427.262 21.3828C426.413 20.8047 425.892 19.9844 425.699 18.9219L427.957 18.5781C428.098 19.1667 428.387 19.612 428.824 19.9141C429.262 20.2109 429.832 20.3594 430.535 20.3594C431.301 20.3594 431.913 20.2005 432.371 19.8828C432.829 19.5599 433.059 19.1667 433.059 18.7031C433.059 18.3281 432.918 18.013 432.637 17.7578C432.361 17.5026 431.936 17.3099 431.363 17.1797L429.332 16.7344C428.212 16.4792 427.384 16.0729 426.848 15.5156C426.316 14.9583 426.051 14.2526 426.051 13.3984C426.051 12.6901 426.249 12.0703 426.645 11.5391C427.04 11.0078 427.587 10.5937 428.285 10.2969C428.983 9.99479 429.783 9.84375 430.684 9.84375C431.98 9.84375 433.001 10.125 433.746 10.6875C434.491 11.2448 434.983 11.9922 435.223 12.9297ZM443.197 22.2422C442.015 22.2422 440.997 21.9896 440.143 21.4844C439.294 20.974 438.637 20.2578 438.174 19.3359C437.715 18.4089 437.486 17.3229 437.486 16.0781C437.486 14.849 437.715 13.7656 438.174 12.8281C438.637 11.8906 439.283 11.1589 440.111 10.6328C440.945 10.1068 441.919 9.84375 443.033 9.84375C443.71 9.84375 444.367 9.95573 445.002 10.1797C445.637 10.4036 446.208 10.7552 446.713 11.2344C447.218 11.7135 447.617 12.3359 447.908 13.1016C448.2 13.862 448.346 14.7865 448.346 15.875V16.7031H438.807V14.9531H446.057C446.057 14.3385 445.932 13.7943 445.682 13.3203C445.432 12.8411 445.08 12.4635 444.627 12.1875C444.179 11.9115 443.653 11.7734 443.049 11.7734C442.393 11.7734 441.82 11.9349 441.33 12.2578C440.846 12.5755 440.471 12.9922 440.205 13.5078C439.945 14.0182 439.814 14.5729 439.814 15.1719V16.5391C439.814 17.3411 439.955 18.0234 440.236 18.5859C440.523 19.1484 440.921 19.5781 441.432 19.875C441.942 20.1667 442.538 20.3125 443.221 20.3125C443.663 20.3125 444.067 20.25 444.432 20.125C444.796 19.9948 445.111 19.8021 445.377 19.5469C445.643 19.2917 445.846 18.9766 445.986 18.6016L448.197 19C448.02 19.651 447.702 20.2214 447.244 20.7109C446.791 21.1953 446.221 21.5729 445.533 21.8437C444.851 22.1094 444.072 22.2422 443.197 22.2422ZM450.938 22V10H453.195V11.9062H453.32C453.539 11.2604 453.924 10.7526 454.477 10.3828C455.034 10.0078 455.664 9.82031 456.367 9.82031C456.513 9.82031 456.685 9.82552 456.883 9.83594C457.086 9.84635 457.245 9.85937 457.359 9.875V12.1094C457.266 12.0833 457.099 12.0547 456.859 12.0234C456.62 11.987 456.38 11.9687 456.141 11.9687C455.589 11.9687 455.096 12.0859 454.664 12.3203C454.237 12.5495 453.898 12.8698 453.648 13.2812C453.398 13.6875 453.273 14.151 453.273 14.6719V22H450.938ZM470.012 10L465.66 22H463.16L458.801 10H461.309L464.348 19.2344H464.473L467.504 10H470.012ZM476.971 22.2422C475.788 22.2422 474.77 21.9896 473.916 21.4844C473.067 20.974 472.411 20.2578 471.947 19.3359C471.489 18.4089 471.26 17.3229 471.26 16.0781C471.26 14.849 471.489 13.7656 471.947 12.8281C472.411 11.8906 473.057 11.1589 473.885 10.6328C474.718 10.1068 475.692 9.84375 476.807 9.84375C477.484 9.84375 478.14 9.95573 478.775 10.1797C479.411 10.4036 479.981 10.7552 480.486 11.2344C480.992 11.7135 481.39 12.3359 481.682 13.1016C481.973 13.862 482.119 14.7865 482.119 15.875V16.7031H472.58V14.9531H479.83C479.83 14.3385 479.705 13.7943 479.455 13.3203C479.205 12.8411 478.854 12.4635 478.4 12.1875C477.952 11.9115 477.426 11.7734 476.822 11.7734C476.166 11.7734 475.593 11.9349 475.104 12.2578C474.619 12.5755 474.244 12.9922 473.979 13.5078C473.718 14.0182 473.588 14.5729 473.588 15.1719V16.5391C473.588 17.3411 473.729 18.0234 474.01 18.5859C474.296 19.1484 474.695 19.5781 475.205 19.875C475.715 20.1667 476.312 20.3125 476.994 20.3125C477.437 20.3125 477.84 20.25 478.205 20.125C478.57 19.9948 478.885 19.8021 479.15 19.5469C479.416 19.2917 479.619 18.9766 479.76 18.6016L481.971 19C481.794 19.651 481.476 20.2214 481.018 20.7109C480.564 21.1953 479.994 21.5729 479.307 21.8437C478.624 22.1094 477.846 22.2422 476.971 22.2422ZM489.203 22.2344C488.234 22.2344 487.37 21.987 486.609 21.4922C485.854 20.9922 485.26 20.2812 484.828 19.3594C484.401 18.4323 484.188 17.3203 484.188 16.0234C484.188 14.7266 484.404 13.6172 484.836 12.6953C485.273 11.7734 485.872 11.0677 486.633 10.5781C487.393 10.0885 488.255 9.84375 489.219 9.84375C489.964 9.84375 490.563 9.96875 491.016 10.2187C491.474 10.4635 491.828 10.75 492.078 11.0781C492.333 11.4062 492.531 11.6953 492.672 11.9453H492.813V6H495.148V22H492.867V20.1328H492.672C492.531 20.388 492.328 20.6797 492.063 21.0078C491.802 21.3359 491.443 21.6224 490.984 21.8672C490.526 22.112 489.932 22.2344 489.203 22.2344ZM489.719 20.2422C490.391 20.2422 490.958 20.0651 491.422 19.7109C491.891 19.3516 492.245 18.8542 492.484 18.2188C492.729 17.5833 492.852 16.8437 492.852 16C492.852 15.1667 492.732 14.4375 492.492 13.8125C492.253 13.1875 491.901 12.7005 491.438 12.3516C490.974 12.0026 490.401 11.8281 489.719 11.8281C489.016 11.8281 488.43 12.0104 487.961 12.375C487.492 12.7396 487.138 13.237 486.898 13.8672C486.664 14.4974 486.547 15.2083 486.547 16C486.547 16.8021 486.667 17.5234 486.906 18.1641C487.146 18.8047 487.5 19.3125 487.969 19.6875C488.443 20.0573 489.026 20.2422 489.719 20.2422Z" fill="#555555"/>
<g clip-path="url(#clip0_1_106)">
<path d="M126 5C124.22 5 122.48 5.52784 121 6.51677C119.52 7.50571 118.366 8.91131 117.685 10.5558C117.004 12.2004 116.826 14.01 117.173 15.7558C117.52 17.5016 118.377 19.1053 119.636 20.364C120.895 21.6226 122.498 22.4798 124.244 22.8271C125.99 23.1743 127.8 22.9961 129.444 22.3149C131.089 21.6337 132.494 20.4802 133.483 19.0001C134.472 17.5201 135 15.78 135 14C134.997 11.6138 134.048 9.32616 132.361 7.63889C130.674 5.95162 128.386 5.00258 126 5V5ZM126 21.5C124.517 21.5 123.067 21.0601 121.833 20.236C120.6 19.4119 119.639 18.2406 119.071 16.8701C118.503 15.4997 118.355 13.9917 118.644 12.5368C118.934 11.082 119.648 9.74559 120.697 8.6967C121.746 7.64781 123.082 6.9335 124.537 6.64411C125.992 6.35472 127.5 6.50325 128.87 7.0709C130.241 7.63856 131.412 8.59985 132.236 9.83322C133.06 11.0666 133.5 12.5166 133.5 14C133.498 15.9885 132.707 17.8948 131.301 19.3009C129.895 20.7069 127.988 21.4978 126 21.5V21.5Z" fill="#555555"/>
<path d="M128.652 11.348C128.794 11.4846 128.983 11.5602 129.18 11.5585C129.376 11.5568 129.564 11.4779 129.704 11.3389C129.843 11.1998 129.921 11.0117 129.923 10.8151C129.925 10.6184 129.849 10.429 129.713 10.2875C128.978 9.55333 128.043 9.05337 127.025 8.85084C126.006 8.64831 124.951 8.75231 123.991 9.14969C123.032 9.54706 122.212 10.22 121.635 11.0833C121.058 11.9467 120.751 12.9617 120.751 14C120.751 15.0383 121.058 16.0533 121.635 16.9167C122.212 17.78 123.032 18.4529 123.991 18.8503C124.951 19.2477 126.006 19.3517 127.025 19.1492C128.043 18.9466 128.978 18.4467 129.713 17.7125C129.849 17.5711 129.925 17.3816 129.923 17.185C129.921 16.9883 129.843 16.8002 129.704 16.6611C129.564 16.5221 129.376 16.4432 129.18 16.4415C128.983 16.4398 128.794 16.5154 128.652 16.652C128.128 17.1764 127.459 17.5334 126.732 17.678C126.005 17.8226 125.251 17.7483 124.566 17.4645C123.88 17.1806 123.295 16.7 122.883 16.0833C122.471 15.4666 122.251 14.7416 122.251 14C122.251 13.2584 122.471 12.5334 122.883 11.9167C123.295 11.3001 123.88 10.8194 124.566 10.5355C125.251 10.2517 126.005 10.1774 126.732 10.322C127.459 10.4666 128.128 10.8237 128.652 11.348V11.348Z" fill="#555555"/>
</g>
<defs>
<clipPath id="clip0_1_106">
<rect width="18" height="18" fill="white" transform="translate(117 5)"/>
</clipPath>
</defs>
</svg>
